<mxfile host="drawio-plugin" modified="2022-01-09T04:25:05.296Z" agent="5.0 (Macintosh; Intel Mac OS X 10_16_0) AppleWebKit/537.36 (KHTML, like Gecko) Chrome/84.0.4147.105 Safari/537.36" etag="zt0I6Q_ZHoRdrbp3TOx-" version="14.7.4" type="embed" pages="2"><diagram id="23iRSUPoRavnBvh4doch" name="NIO架构"><mxGraphModel dx="1941" dy="605" grid="1" gridSize="10" guides="1" tooltips="1" connect="1" arrows="1" fold="1" page="1" pageScale="1" pageWidth="827" pageHeight="1169" math="0" shadow="0"><root><mxCell id="0"/><mxCell id="1" parent="0"/><mxCell id="UZY1eDvHCtF0Vs8QLToh-1" value="" style="endArrow=none;html=1;" parent="1" edge="1"><mxGeometry width="50" height="50" relative="1" as="geometry"><mxPoint x="-260" y="310" as="sourcePoint"/><mxPoint x="800" y="310" as="targetPoint"/></mxGeometry></mxCell><mxCell id="UZY1eDvHCtF0Vs8QLToh-2" value="" style="endArrow=none;html=1;" parent="1" edge="1"><mxGeometry width="50" height="50" relative="1" as="geometry"><mxPoint x="520" y="310" as="sourcePoint"/><mxPoint x="520" as="targetPoint"/></mxGeometry></mxCell><mxCell id="UZY1eDvHCtF0Vs8QLToh-4" value="用户空间" style="text;html=1;align=center;verticalAlign=middle;resizable=0;points=[];autosize=1;strokeColor=none;" parent="1" vertex="1"><mxGeometry x="-225" y="330" width="60" height="20" as="geometry"/></mxCell><mxCell id="UZY1eDvHCtF0Vs8QLToh-5" value="内核空间" style="text;html=1;align=center;verticalAlign=middle;resizable=0;points=[];autosize=1;strokeColor=none;" parent="1" vertex="1"><mxGeometry x="-225" y="270" width="60" height="20" as="geometry"/></mxCell><mxCell id="UZY1eDvHCtF0Vs8QLToh-6" value="底层硬件" style="text;html=1;align=center;verticalAlign=middle;resizable=0;points=[];autosize=1;strokeColor=none;" parent="1" vertex="1"><mxGeometry x="710" y="280" width="60" height="20" as="geometry"/></mxCell><mxCell id="UZY1eDvHCtF0Vs8QLToh-7" value="内核" style="whiteSpace=wrap;html=1;align=center;verticalAlign=top;" parent="1" vertex="1"><mxGeometry x="-50" y="70" width="480" height="210" as="geometry"/></mxCell><mxCell id="UZY1eDvHCtF0Vs8QLToh-8" value="JVM" style="whiteSpace=wrap;html=1;verticalAlign=top;" parent="1" vertex="1"><mxGeometry x="-50" y="370" width="480" height="590" as="geometry"/></mxCell><mxCell id="UZY1eDvHCtF0Vs8QLToh-9" value="Socket(8080)" style="whiteSpace=wrap;html=1;align=center;verticalAlign=top;" parent="1" vertex="1"><mxGeometry x="294" y="150" width="120" height="100" as="geometry"/></mxCell><mxCell id="UZY1eDvHCtF0Vs8QLToh-10" value="recvQueue" style="whiteSpace=wrap;html=1;align=center;" parent="1" vertex="1"><mxGeometry x="314" y="180" width="80" height="20" as="geometry"/></mxCell><mxCell id="UZY1eDvHCtF0Vs8QLToh-11" value="&lt;span&gt;sendQueue&lt;/span&gt;" style="whiteSpace=wrap;html=1;align=center;" parent="1" vertex="1"><mxGeometry x="314" y="220" width="80" height="20" as="geometry"/></mxCell><mxCell id="UZY1eDvHCtF0Vs8QLToh-14" style="edgeStyle=orthogonalEdgeStyle;orthogonalLoop=1;jettySize=auto;html=1;entryX=1;entryY=0.5;entryDx=0;entryDy=0;startArrow=classic;startFill=1;" parent="1" target="UZY1eDvHCtF0Vs8QLToh-9" edge="1"><mxGeometry relative="1" as="geometry"><mxPoint x="550" y="200" as="sourcePoint"/></mxGeometry></mxCell><mxCell id="UZY1eDvHCtF0Vs8QLToh-18" value="1.2 bind() 绑定端口" style="edgeLabel;html=1;align=center;verticalAlign=middle;resizable=0;points=[];" parent="UZY1eDvHCtF0Vs8QLToh-14" vertex="1" connectable="0"><mxGeometry x="0.1029" relative="1" as="geometry"><mxPoint as="offset"/></mxGeometry></mxCell><mxCell id="UZY1eDvHCtF0Vs8QLToh-17" value="" style="edgeStyle=orthogonalEdgeStyle;orthogonalLoop=1;jettySize=auto;html=1;startArrow=classic;startFill=1;" parent="1" source="UZY1eDvHCtF0Vs8QLToh-15" target="UZY1eDvHCtF0Vs8QLToh-16" edge="1"><mxGeometry relative="1" as="geometry"/></mxCell><mxCell id="UZY1eDvHCtF0Vs8QLToh-19" value="网络数据包" style="edgeLabel;html=1;align=center;verticalAlign=middle;resizable=0;points=[];" parent="UZY1eDvHCtF0Vs8QLToh-17" vertex="1" connectable="0"><mxGeometry y="4" relative="1" as="geometry"><mxPoint as="offset"/></mxGeometry></mxCell><mxCell id="UZY1eDvHCtF0Vs8QLToh-15" value="网卡" style="shape=module;align=left;spacingLeft=20;align=center;verticalAlign=middle;" parent="1" vertex="1"><mxGeometry x="550" y="175" width="100" height="50" as="geometry"/></mxCell><mxCell id="UZY1eDvHCtF0Vs8QLToh-16" value="" style="shape=waypoint;size=6;pointerEvents=1;points=[];resizable=0;rotatable=0;perimeter=centerPerimeter;snapToPoint=1;spacingLeft=20;" parent="1" vertex="1"><mxGeometry x="760" y="180" width="40" height="40" as="geometry"/></mxCell><mxCell id="UZY1eDvHCtF0Vs8QLToh-21" value="" style="edgeStyle=orthogonalEdgeStyle;orthogonalLoop=1;jettySize=auto;html=1;entryX=0.5;entryY=1;entryDx=0;entryDy=0;startArrow=none;startFill=0;" parent="1" source="UZY1eDvHCtF0Vs8QLToh-20" target="UZY1eDvHCtF0Vs8QLToh-9" edge="1"><mxGeometry relative="1" as="geometry"/></mxCell><mxCell id="UZY1eDvHCtF0Vs8QLToh-25" value="1.1 socket0() 创建fd" style="edgeLabel;html=1;align=center;verticalAlign=middle;resizable=0;points=[];" parent="UZY1eDvHCtF0Vs8QLToh-21" vertex="1" connectable="0"><mxGeometry x="0.0353" relative="1" as="geometry"><mxPoint as="offset"/></mxGeometry></mxCell><mxCell id="UZY1eDvHCtF0Vs8QLToh-20" value="Server Channel" style="html=1;align=center;verticalAlign=top;" parent="1" vertex="1"><mxGeometry x="299" y="420" width="110" height="150" as="geometry"/></mxCell><mxCell id="UZY1eDvHCtF0Vs8QLToh-24" value="&lt;span style=&quot;font-size: 11px&quot;&gt;1. ServerSocketChannel.open();&lt;/span&gt;" style="text;html=1;align=center;verticalAlign=middle;resizable=0;points=[];autosize=1;strokeColor=none;" parent="1" vertex="1"><mxGeometry x="269" y="575" width="170" height="20" as="geometry"/></mxCell><mxCell id="UZY1eDvHCtF0Vs8QLToh-26" value="Selector" style="html=1;align=center;verticalAlign=top;" parent="1" vertex="1"><mxGeometry x="-30" y="390" width="110" height="230" as="geometry"/></mxCell><mxCell id="UZY1eDvHCtF0Vs8QLToh-27" value="2. Selector.open();" style="text;html=1;align=center;verticalAlign=middle;resizable=0;points=[];autosize=1;strokeColor=none;" parent="1" vertex="1"><mxGeometry x="-30" y="620" width="110" height="20" as="geometry"/></mxCell><mxCell id="UZY1eDvHCtF0Vs8QLToh-29" value="P:pollWrapper" style="whiteSpace=wrap;html=1;align=center;" parent="1" vertex="1"><mxGeometry x="-15" y="420" width="80" height="20" as="geometry"/></mxCell><mxCell id="UZY1eDvHCtF0Vs8QLToh-31" value="P:fdToKey" style="whiteSpace=wrap;html=1;align=center;" parent="1" vertex="1"><mxGeometry x="-15" y="450" width="80" height="20" as="geometry"/></mxCell><mxCell id="UZY1eDvHCtF0Vs8QLToh-36" style="edgeStyle=orthogonalEdgeStyle;orthogonalLoop=1;jettySize=auto;html=1;entryX=0;entryY=0.25;entryDx=0;entryDy=0;startArrow=none;startFill=0;" parent="1" source="UZY1eDvHCtF0Vs8QLToh-32" target="UZY1eDvHCtF0Vs8QLToh-33" edge="1"><mxGeometry relative="1" as="geometry"><Array as="points"><mxPoint x="100" y="490"/><mxPoint x="100" y="423"/></Array></mxGeometry></mxCell><mxCell id="UZY1eDvHCtF0Vs8QLToh-37" value="2.1new" style="edgeLabel;html=1;align=center;verticalAlign=middle;resizable=0;points=[];" parent="UZY1eDvHCtF0Vs8QLToh-36" vertex="1" connectable="0"><mxGeometry x="-0.0857" y="-3" relative="1" as="geometry"><mxPoint y="-23" as="offset"/></mxGeometry></mxCell><mxCell id="UZY1eDvHCtF0Vs8QLToh-32" value="M:newWrapper()" style="whiteSpace=wrap;html=1;align=center;" parent="1" vertex="1"><mxGeometry x="-15" y="480" width="80" height="20" as="geometry"/></mxCell><mxCell id="UZY1eDvHCtF0Vs8QLToh-33" value="PollWrapper(e/poll)" style="html=1;align=center;verticalAlign=top;" parent="1" vertex="1"><mxGeometry x="135" y="390" width="110" height="130" as="geometry"/></mxCell><mxCell id="UZY1eDvHCtF0Vs8QLToh-48" style="edgeStyle=orthogonalEdgeStyle;orthogonalLoop=1;jettySize=auto;html=1;entryX=1;entryY=0.75;entryDx=0;entryDy=0;startArrow=none;startFill=0;" parent="1" source="UZY1eDvHCtF0Vs8QLToh-34" target="UZY1eDvHCtF0Vs8QLToh-64" edge="1"><mxGeometry relative="1" as="geometry"/></mxCell><mxCell id="UZY1eDvHCtF0Vs8QLToh-49" value="&lt;font&gt;2.2 epoll_create()&lt;/font&gt;" style="edgeLabel;html=1;align=center;verticalAlign=middle;resizable=0;points=[];" parent="UZY1eDvHCtF0Vs8QLToh-48" vertex="1" connectable="0"><mxGeometry x="0.5308" y="2" relative="1" as="geometry"><mxPoint x="5" y="102" as="offset"/></mxGeometry></mxCell><mxCell id="UZY1eDvHCtF0Vs8QLToh-34" value="P:epFD" style="whiteSpace=wrap;html=1;align=center;" parent="1" vertex="1"><mxGeometry x="150" y="420" width="80" height="20" as="geometry"/></mxCell><mxCell id="UZY1eDvHCtF0Vs8QLToh-35" value="P:eventSlow" style="whiteSpace=wrap;html=1;align=center;" parent="1" vertex="1"><mxGeometry x="150" y="450" width="80" height="20" as="geometry"/></mxCell><mxCell id="UZY1eDvHCtF0Vs8QLToh-38" value="epFD(红黑树)" style="html=1;align=center;verticalAlign=top;" parent="1" vertex="1"><mxGeometry x="-15" y="130" width="175" height="120" as="geometry"/></mxCell><mxCell id="UZY1eDvHCtF0Vs8QLToh-44" style="orthogonalLoop=1;jettySize=auto;html=1;entryX=0.575;entryY=0.5;entryDx=0;entryDy=0;entryPerimeter=0;startArrow=none;startFill=0;" parent="1" source="UZY1eDvHCtF0Vs8QLToh-39" target="UZY1eDvHCtF0Vs8QLToh-41" edge="1"><mxGeometry relative="1" as="geometry"/></mxCell><mxCell id="UZY1eDvHCtF0Vs8QLToh-46" style="edgeStyle=none;orthogonalLoop=1;jettySize=auto;html=1;startArrow=none;startFill=0;" parent="1" source="UZY1eDvHCtF0Vs8QLToh-39" target="UZY1eDvHCtF0Vs8QLToh-40" edge="1"><mxGeometry relative="1" as="geometry"/></mxCell><mxCell id="UZY1eDvHCtF0Vs8QLToh-39" value="" style="shape=waypoint;size=6;pointerEvents=1;points=[];fillColor=none;resizable=0;rotatable=0;perimeter=centerPerimeter;snapToPoint=1;align=center;" parent="1" vertex="1"><mxGeometry x="27.5" y="150" width="40" height="40" as="geometry"/></mxCell><mxCell id="UZY1eDvHCtF0Vs8QLToh-40" value="" style="shape=waypoint;size=6;pointerEvents=1;points=[];fillColor=none;resizable=0;rotatable=0;perimeter=centerPerimeter;snapToPoint=1;align=center;" parent="1" vertex="1"><mxGeometry x="45" y="180" width="40" height="40" as="geometry"/></mxCell><mxCell id="UZY1eDvHCtF0Vs8QLToh-45" style="edgeStyle=none;orthogonalLoop=1;jettySize=auto;html=1;entryX=0.625;entryY=0.55;entryDx=0;entryDy=0;entryPerimeter=0;startArrow=none;startFill=0;" parent="1" source="UZY1eDvHCtF0Vs8QLToh-41" target="UZY1eDvHCtF0Vs8QLToh-42" edge="1"><mxGeometry relative="1" as="geometry"/></mxCell><mxCell id="UZY1eDvHCtF0Vs8QLToh-47" style="edgeStyle=none;orthogonalLoop=1;jettySize=auto;html=1;startArrow=none;startFill=0;" parent="1" source="UZY1eDvHCtF0Vs8QLToh-41" target="UZY1eDvHCtF0Vs8QLToh-43" edge="1"><mxGeometry relative="1" as="geometry"/></mxCell><mxCell id="UZY1eDvHCtF0Vs8QLToh-41" value="" style="shape=waypoint;size=6;pointerEvents=1;points=[];resizable=0;rotatable=0;perimeter=centerPerimeter;snapToPoint=1;align=center;" parent="1" vertex="1"><mxGeometry x="5" y="180" width="40" height="40" as="geometry"/></mxCell><mxCell id="UZY1eDvHCtF0Vs8QLToh-42" value="" style="shape=waypoint;size=6;pointerEvents=1;points=[];fillColor=none;resizable=0;rotatable=0;perimeter=centerPerimeter;snapToPoint=1;align=center;" parent="1" vertex="1"><mxGeometry x="-15" y="210" width="40" height="40" as="geometry"/></mxCell><mxCell id="UZY1eDvHCtF0Vs8QLToh-43" value="" style="shape=waypoint;size=6;pointerEvents=1;points=[];fillColor=none;resizable=0;rotatable=0;perimeter=centerPerimeter;snapToPoint=1;align=center;" parent="1" vertex="1"><mxGeometry x="27.5" y="210" width="40" height="40" as="geometry"/></mxCell><mxCell id="UZY1eDvHCtF0Vs8QLToh-51" style="edgeStyle=orthogonalEdgeStyle;orthogonalLoop=1;jettySize=auto;html=1;entryX=0;entryY=0.5;entryDx=0;entryDy=0;startArrow=none;startFill=0;elbow=vertical;exitX=0;exitY=0.5;exitDx=0;exitDy=0;" parent="1" source="UZY1eDvHCtF0Vs8QLToh-50" target="UZY1eDvHCtF0Vs8QLToh-31" edge="1"><mxGeometry relative="1" as="geometry"><Array as="points"><mxPoint x="-70" y="520"/><mxPoint x="-70" y="460"/></Array></mxGeometry></mxCell><mxCell id="UZY1eDvHCtF0Vs8QLToh-52" value="&lt;font&gt;3.1 put()&lt;/font&gt;" style="edgeLabel;html=1;align=center;verticalAlign=middle;resizable=0;points=[];" parent="UZY1eDvHCtF0Vs8QLToh-51" vertex="1" connectable="0"><mxGeometry x="0.0706" relative="1" as="geometry"><mxPoint as="offset"/></mxGeometry></mxCell><mxCell id="UZY1eDvHCtF0Vs8QLToh-53" style="edgeStyle=orthogonalEdgeStyle;orthogonalLoop=1;jettySize=auto;html=1;entryX=0;entryY=0.5;entryDx=0;entryDy=0;startArrow=none;startFill=0;" parent="1" source="UZY1eDvHCtF0Vs8QLToh-50" target="UZY1eDvHCtF0Vs8QLToh-35" edge="1"><mxGeometry relative="1" as="geometry"/></mxCell><mxCell id="UZY1eDvHCtF0Vs8QLToh-54" value="&lt;font&gt;3.2 put&lt;/font&gt;" style="edgeLabel;html=1;align=center;verticalAlign=middle;resizable=0;points=[];" parent="UZY1eDvHCtF0Vs8QLToh-53" vertex="1" connectable="0"><mxGeometry x="0.2621" y="-4" relative="1" as="geometry"><mxPoint x="1" y="9" as="offset"/></mxGeometry></mxCell><mxCell id="UZY1eDvHCtF0Vs8QLToh-50" value="M:register()" style="whiteSpace=wrap;html=1;align=center;" parent="1" vertex="1"><mxGeometry x="-15" y="510" width="80" height="20" as="geometry"/></mxCell><mxCell id="UZY1eDvHCtF0Vs8QLToh-61" style="edgeStyle=orthogonalEdgeStyle;orthogonalLoop=1;jettySize=auto;html=1;entryX=0;entryY=0.75;entryDx=0;entryDy=0;startArrow=none;startFill=0;" parent="1" source="UZY1eDvHCtF0Vs8QLToh-55" target="UZY1eDvHCtF0Vs8QLToh-58" edge="1"><mxGeometry relative="1" as="geometry"/></mxCell><mxCell id="UZY1eDvHCtF0Vs8QLToh-63" value="4.2 poll()" style="edgeLabel;html=1;align=center;verticalAlign=middle;resizable=0;points=[];" parent="UZY1eDvHCtF0Vs8QLToh-61" vertex="1" connectable="0"><mxGeometry x="-0.1929" y="5" relative="1" as="geometry"><mxPoint x="1" as="offset"/></mxGeometry></mxCell><mxCell id="UZY1eDvHCtF0Vs8QLToh-55" value="M:select()" style="whiteSpace=wrap;html=1;align=center;" parent="1" vertex="1"><mxGeometry x="-15" y="540" width="80" height="20" as="geometry"/></mxCell><mxCell id="UZY1eDvHCtF0Vs8QLToh-56" value="&lt;span&gt;&lt;br&gt;while(1)&lt;br&gt;&lt;/span&gt;&lt;span&gt;（&lt;/span&gt;&lt;span&gt;独占Thread&lt;/span&gt;&lt;span&gt;）&lt;br&gt;&lt;/span&gt;" style="ellipse;shape=umlControl;whiteSpace=wrap;html=1;align=center;fillColor=none;fontStyle=0;" parent="1" vertex="1"><mxGeometry x="54" y="620" width="260" height="280" as="geometry"/></mxCell><mxCell id="UZY1eDvHCtF0Vs8QLToh-60" style="edgeStyle=orthogonalEdgeStyle;orthogonalLoop=1;jettySize=auto;html=1;entryX=1;entryY=0.75;entryDx=0;entryDy=0;startArrow=none;startFill=0;" parent="1" source="UZY1eDvHCtF0Vs8QLToh-57" target="UZY1eDvHCtF0Vs8QLToh-55" edge="1"><mxGeometry relative="1" as="geometry"/></mxCell><mxCell id="UZY1eDvHCtF0Vs8QLToh-62" value="4.1 doSelect()" style="edgeLabel;html=1;align=center;verticalAlign=middle;resizable=0;points=[];" parent="UZY1eDvHCtF0Vs8QLToh-60" vertex="1" connectable="0"><mxGeometry x="0.4348" y="-17" relative="1" as="geometry"><mxPoint x="-14" y="5" as="offset"/></mxGeometry></mxCell><mxCell id="UZY1eDvHCtF0Vs8QLToh-57" value="&lt;b&gt;4. 事件驱动&lt;br&gt;Selector.select()&lt;br&gt;&lt;/b&gt;" style="text;html=1;align=center;verticalAlign=middle;resizable=0;points=[];autosize=1;" parent="1" vertex="1"><mxGeometry x="129" y="625" width="110" height="30" as="geometry"/></mxCell><mxCell id="UZY1eDvHCtF0Vs8QLToh-67" style="edgeStyle=orthogonalEdgeStyle;orthogonalLoop=1;jettySize=auto;html=1;entryX=1;entryY=0.5;entryDx=0;entryDy=0;startArrow=none;startFill=0;" parent="1" source="UZY1eDvHCtF0Vs8QLToh-58" target="UZY1eDvHCtF0Vs8QLToh-65" edge="1"><mxGeometry relative="1" as="geometry"><Array as="points"><mxPoint x="270" y="490"/><mxPoint x="270" y="200"/></Array></mxGeometry></mxCell><mxCell id="UZY1eDvHCtF0Vs8QLToh-68" value="4.3 更新内核事件&lt;br&gt;列表(&lt;span style=&quot;font-size: 12px ; background-color: rgb(0 , 0 , 0)&quot;&gt;eventSlow&lt;/span&gt;)" style="edgeLabel;html=1;align=center;verticalAlign=middle;resizable=0;points=[];" parent="UZY1eDvHCtF0Vs8QLToh-67" vertex="1" connectable="0"><mxGeometry x="0.1045" y="3" relative="1" as="geometry"><mxPoint x="-22" y="-67" as="offset"/></mxGeometry></mxCell><mxCell id="UZY1eDvHCtF0Vs8QLToh-69" style="edgeStyle=orthogonalEdgeStyle;orthogonalLoop=1;jettySize=auto;html=1;entryX=1;entryY=0.25;entryDx=0;entryDy=0;startArrow=none;startFill=0;" parent="1" source="UZY1eDvHCtF0Vs8QLToh-58" target="UZY1eDvHCtF0Vs8QLToh-66" edge="1"><mxGeometry relative="1" as="geometry"><Array as="points"><mxPoint x="250" y="490"/><mxPoint x="250" y="230"/></Array></mxGeometry></mxCell><mxCell id="UZY1eDvHCtF0Vs8QLToh-70" value="4.4 获取就绪事&lt;br&gt;件列表(publicKeys)" style="edgeLabel;html=1;align=center;verticalAlign=middle;resizable=0;points=[];" parent="UZY1eDvHCtF0Vs8QLToh-69" vertex="1" connectable="0"><mxGeometry x="-0.0703" y="1" relative="1" as="geometry"><mxPoint x="-10" y="-58" as="offset"/></mxGeometry></mxCell><mxCell id="UZY1eDvHCtF0Vs8QLToh-58" value="M:poll()" style="whiteSpace=wrap;html=1;align=center;" parent="1" vertex="1"><mxGeometry x="150" y="480" width="80" height="20" as="geometry"/></mxCell><mxCell id="UZY1eDvHCtF0Vs8QLToh-64" value="epoll_create" style="whiteSpace=wrap;html=1;fillColor=none;align=center;" parent="1" vertex="1"><mxGeometry x="90" y="155" width="70" height="20" as="geometry"/></mxCell><mxCell id="UZY1eDvHCtF0Vs8QLToh-65" value="epoll_ctl" style="whiteSpace=wrap;html=1;fillColor=none;align=center;" parent="1" vertex="1"><mxGeometry x="90" y="190" width="70" height="20" as="geometry"/></mxCell><mxCell id="UZY1eDvHCtF0Vs8QLToh-66" value="epoll_wait" style="whiteSpace=wrap;html=1;fillColor=none;align=center;" parent="1" vertex="1"><mxGeometry x="90" y="225" width="70" height="20" as="geometry"/></mxCell><mxCell id="UZY1eDvHCtF0Vs8QLToh-71" value="P:publicKeys()" style="whiteSpace=wrap;html=1;align=center;" parent="1" vertex="1"><mxGeometry x="-15" y="575" width="80" height="20" as="geometry"/></mxCell><mxCell id="UZY1eDvHCtF0Vs8QLToh-74" value="5. 获取就绪事件&lt;br&gt;selectKeys" style="text;html=1;align=center;verticalAlign=middle;resizable=0;points=[];autosize=1;strokeColor=none;fontStyle=0;" parent="1" vertex="1"><mxGeometry y="765" width="100" height="30" as="geometry"/></mxCell><mxCell id="UZY1eDvHCtF0Vs8QLToh-75" value="6. 执行就绪事件&lt;br&gt;accept/read/write&lt;br&gt;（线程池）" style="text;html=1;align=center;verticalAlign=middle;resizable=0;points=[];autosize=1;strokeColor=none;fontStyle=0;" parent="1" vertex="1"><mxGeometry x="130" y="890" width="110" height="50" as="geometry"/></mxCell><mxCell id="UZY1eDvHCtF0Vs8QLToh-76" value="7. 移除完成事件&lt;br&gt;remove()" style="text;html=1;align=center;verticalAlign=middle;resizable=0;points=[];autosize=1;strokeColor=none;fontStyle=0;" parent="1" vertex="1"><mxGeometry x="270" y="765" width="100" height="30" as="geometry"/></mxCell><mxCell id="UZY1eDvHCtF0Vs8QLToh-77" value="M:socket()" style="whiteSpace=wrap;html=1;align=center;" parent="1" vertex="1"><mxGeometry x="310" y="450" width="80" height="20" as="geometry"/></mxCell><mxCell id="UZY1eDvHCtF0Vs8QLToh-81" value="3. register" style="edgeStyle=orthogonalEdgeStyle;rounded=0;orthogonalLoop=1;jettySize=auto;html=1;entryX=1;entryY=0.75;entryDx=0;entryDy=0;startArrow=none;startFill=0;" parent="1" source="UZY1eDvHCtF0Vs8QLToh-78" target="UZY1eDvHCtF0Vs8QLToh-50" edge="1"><mxGeometry relative="1" as="geometry"><Array as="points"><mxPoint x="350" y="510"/><mxPoint x="270" y="510"/><mxPoint x="270" y="540"/><mxPoint x="65" y="540"/></Array></mxGeometry></mxCell><mxCell id="UZY1eDvHCtF0Vs8QLToh-78" value="M:register()" style="whiteSpace=wrap;html=1;align=center;" parent="1" vertex="1"><mxGeometry x="310" y="480" width="80" height="20" as="geometry"/></mxCell><mxCell id="UZY1eDvHCtF0Vs8QLToh-79" value="M:write()" style="whiteSpace=wrap;html=1;align=center;" parent="1" vertex="1"><mxGeometry x="310" y="510" width="80" height="20" as="geometry"/></mxCell><mxCell id="UZY1eDvHCtF0Vs8QLToh-80" value="M:read()" style="whiteSpace=wrap;html=1;align=center;" parent="1" vertex="1"><mxGeometry x="310" y="540" width="80" height="20" as="geometry"/></mxCell><mxCell id="UZY1eDvHCtF0Vs8QLToh-82" value="DMA 直接内存访问" style="text;html=1;align=center;verticalAlign=middle;resizable=0;points=[];autosize=1;strokeColor=none;" parent="1" vertex="1"><mxGeometry x="420" y="165" width="120" height="20" as="geometry"/></mxCell><mxCell id="UZY1eDvHCtF0Vs8QLToh-85" value="copy" style="edgeStyle=orthogonalEdgeStyle;rounded=0;orthogonalLoop=1;jettySize=auto;html=1;entryX=0;entryY=0.5;entryDx=0;entryDy=0;startArrow=none;startFill=0;" parent="1" source="UZY1eDvHCtF0Vs8QLToh-83" target="UZY1eDvHCtF0Vs8QLToh-84" edge="1"><mxGeometry relative="1" as="geometry"/></mxCell><mxCell id="UZY1eDvHCtF0Vs8QLToh-83" value="Send 数据包" style="rounded=0;whiteSpace=wrap;html=1;fillColor=none;align=center;" parent="1" vertex="1"><mxGeometry x="299" y="630" width="120" height="60" as="geometry"/></mxCell><mxCell id="UZY1eDvHCtF0Vs8QLToh-84" value="Send 数据包" style="rounded=0;whiteSpace=wrap;html=1;align=center;" parent="1" vertex="1"><mxGeometry x="550" y="630" width="120" height="60" as="geometry"/></mxCell><mxCell id="UZY1eDvHCtF0Vs8QLToh-86" value="堆外内存" style="text;html=1;align=center;verticalAlign=middle;resizable=0;points=[];autosize=1;strokeColor=none;" parent="1" vertex="1"><mxGeometry x="560" y="600" width="60" height="20" as="geometry"/></mxCell><mxCell id="UZY1eDvHCtF0Vs8QLToh-87" value="堆内内存" style="text;html=1;align=center;verticalAlign=middle;resizable=0;points=[];autosize=1;strokeColor=none;" parent="1" vertex="1"><mxGeometry x="329" y="600" width="60" height="20" as="geometry"/></mxCell><mxCell id="UZY1eDvHCtF0Vs8QLToh-89" style="edgeStyle=orthogonalEdgeStyle;rounded=0;orthogonalLoop=1;jettySize=auto;html=1;startArrow=none;startFill=0;" parent="1" source="UZY1eDvHCtF0Vs8QLToh-88" target="UZY1eDvHCtF0Vs8QLToh-84" edge="1"><mxGeometry relative="1" as="geometry"/></mxCell><mxCell id="UZY1eDvHCtF0Vs8QLToh-90" value="一块可被JVM管理的内存，传统socket是直接申请并未管理和回收；&lt;br&gt;这对于内存使用非常不友好" style="edgeLabel;html=1;align=center;verticalAlign=middle;resizable=0;points=[];" parent="UZY1eDvHCtF0Vs8QLToh-89" vertex="1" connectable="0"><mxGeometry x="0.5611" y="39" relative="1" as="geometry"><mxPoint as="offset"/></mxGeometry></mxCell><mxCell id="UZY1eDvHCtF0Vs8QLToh-88" value="DirectBuffer" style="text;html=1;align=center;verticalAlign=middle;resizable=0;points=[];autosize=1;strokeColor=#f0f0f0;" parent="1" vertex="1"><mxGeometry x="144" y="940" width="80" height="20" as="geometry"/></mxCell></root></mxGraphModel></diagram><diagram id="GhOPUaG5WC8j4fiMF1rp" name="Reactor"><mxGraphModel dx="1012" dy="605" grid="1" gridSize="10" guides="1" tooltips="1" connect="1" arrows="1" fold="1" page="1" pageScale="1" pageWidth="850" pageHeight="1100" math="0" shadow="0"><root><mxCell id="-0NVeKpgkKXMIGLYYXIl-0"/><mxCell id="-0NVeKpgkKXMIGLYYXIl-1" parent="-0NVeKpgkKXMIGLYYXIl-0"/></root></mxGraphModel></diagram></mxfile>